<svg width="124.948898" height="52.710693" viewBox="0 0 124.949 52.7107" fill="none" xmlns="http://www.w3.org/2000/svg" xmlns:xlink="http://www.w3.org/1999/xlink">
	<desc>
			Created with Pixso.
	</desc>
	<defs/>
	<path id="Vector" d="M120.019 15.27C119.813 15.5929 119.577 15.9178 119.323 16.2061C119.072 16.4899 118.961 16.5304 118.803 16.1566C118.574 15.6145 118.468 14.969 118.534 14.3854C118.623 13.6025 119.227 12.6725 120.134 12.8092C121.213 12.9719 120.325 14.7892 120.019 15.27ZM102.571 21.4617C102.518 21.3833 102.778 20.9565 102.819 20.8833C103.046 20.4722 103.341 20.0931 103.658 19.7476C104.227 19.1281 105.1 18.467 105.994 18.5951C106.474 18.6675 106.498 19.252 106.368 19.6198C106.222 20.0287 105.873 20.3451 105.529 20.5908C104.749 21.1487 103.767 21.501 102.8 21.4791C102.771 21.4783 102.594 21.496 102.571 21.4617ZM71.4857 24.4867C71.3522 25.5726 71.024 26.5988 70.5642 27.5901C69.577 29.7189 68.221 31.7867 66.5306 33.4255C66.1732 33.772 65.5297 34.4434 64.9561 34.3948C64.102 34.3221 64.2868 32.5964 64.3693 32.0492C64.6769 30.0061 65.8338 28.0131 66.8946 26.2736C67.3997 25.4456 67.9622 24.6575 68.5872 23.9156C69.1462 23.2522 70.0144 22.2927 70.9921 22.4402C71.7674 22.5573 71.5487 23.9731 71.4857 24.4867ZM124.589 27.4738C124.03 25.4495 123.219 23.4697 122.256 21.6057C122.01 21.1288 121.679 20.6749 121.473 20.1801C121.269 19.6914 121.375 19.3206 121.624 18.8751C122.095 18.0312 122.66 17.2861 123.006 16.373C123.686 14.5804 123.75 12.3285 122.288 10.8916C121.019 9.6438 119.123 9.77527 117.842 10.9336C116.622 12.0366 115.925 13.728 115.678 15.3279C115.543 16.2023 115.599 17.0464 115.823 17.9027C115.902 18.2062 116.022 18.5146 116.081 18.8239C116.164 19.2646 115.91 19.6034 115.636 19.9261C114.22 21.5942 112.781 23.2465 111.259 24.8199C110.476 25.6288 109.676 26.4203 108.859 27.1945C108.063 27.9489 107.277 28.796 106.372 29.421C105.996 29.6807 105.757 29.7656 105.416 29.4185C105.182 29.1805 104.971 28.8867 104.779 28.6163C104.449 28.1519 104.169 27.6552 103.873 27.1689C103.679 26.849 103.184 26.3822 103.18 25.9962C103.176 25.6882 103.519 25.5759 103.753 25.4574C104.197 25.2325 104.641 25.0072 105.078 24.7677C105.976 24.2748 106.836 23.7158 107.594 23.0226C108.941 21.7911 110.034 20.1967 109.891 18.2955C109.758 16.5226 108.397 14.6195 106.426 14.894C105.433 15.0322 104.586 15.6675 103.873 16.3331C103.375 16.7969 102.923 17.4332 102.376 17.8354C103.1 16.4247 103.863 15.0334 104.588 13.6233C106.058 10.7668 107.513 7.89148 108.789 4.94275C109.123 4.17249 109.494 3.40234 109.376 2.53906C109.283 1.86084 108.893 1.28137 108.276 0.974731C107.063 0.371582 106.001 1.00024 105.338 2.0437C104.53 3.31506 103.978 4.78479 103.341 6.14502C102.92 7.04333 102.5 7.94165 102.078 8.8396C100.625 11.9348 99.1474 15.019 97.5714 18.0541C96.0904 20.9059 94.6138 23.826 92.563 26.3215C91.6145 27.4757 90.5257 28.5085 89.368 29.45C88.3395 30.2866 87.2522 31.1453 86.0663 31.7531C85.6019 31.9915 85.0275 32.2633 84.4895 32.1963C83.8037 32.1111 83.6471 31.3875 83.6743 30.8013C83.7373 29.4408 84.415 27.9567 85.0303 26.7673C85.8319 25.2175 86.8938 23.8977 88.0241 22.5817C88.2533 22.3147 88.4767 22.006 88.7781 21.8147C89.0909 21.616 89.2888 21.704 89.5984 21.8649C90.3344 22.2469 91.0014 22.454 91.7954 22.092C93.1273 21.4841 93.551 19.9581 92.9337 18.6743C92.2974 17.3511 90.8813 16.5789 89.4382 16.5789C87.8223 16.5789 86.4514 17.49 85.3095 18.5535C84.1998 19.5872 83.2116 20.7854 82.3806 22.0521C81.4354 23.4927 80.7859 25.0413 80.1434 26.6316C79.5741 28.0411 78.8589 29.3982 77.9736 30.6367C77.7104 31.0052 75.3428 33.9412 74.9554 33.3038C74.7436 32.9553 75.0477 32.0891 75.128 31.7196C75.3172 30.851 75.5703 29.9977 75.83 29.1478C76.0758 28.3427 76.332 27.5446 76.6058 26.7487C76.8556 26.0221 77.1095 25.2434 77.055 24.4645C77.0035 23.7294 76.5848 23.3481 76.0606 22.8958C75.5971 22.4957 75.4033 21.9415 75.1749 21.3929C74.6578 20.1501 73.7703 18.9989 72.5247 18.4241C71.2952 17.8571 69.9132 17.9583 68.6928 18.4889C66.55 19.4207 64.8875 21.3584 63.644 23.2831C61.7936 26.1478 60.5723 29.3381 58.4608 32.0444C57.582 33.1709 56.6003 34.4148 55.3771 35.1876C55.2882 35.2439 54.9778 35.4667 54.8815 35.3682C54.7245 35.2073 55.0236 34.5049 55.086 34.325C55.3831 33.4684 55.6647 32.6078 55.9485 31.7465C56.4953 30.0876 57.1126 28.4489 57.6185 26.777C58.088 25.226 58.4737 23.5724 58.3573 21.9406C58.2713 20.7356 57.8108 19.4974 56.6694 18.924C55.2701 18.2209 53.6647 18.8208 52.422 19.5684C51.0866 20.3716 49.9505 21.459 48.9057 22.605C48.3868 23.1743 47.8881 23.7614 47.39 24.3488C46.9915 24.8186 46.5997 25.4388 46.1051 25.8174C45.9502 25.5347 46.2705 24.7426 46.3306 24.4342C46.4773 23.6804 46.6748 22.9304 46.7125 22.16C46.7721 20.942 46.285 19.7085 44.9768 19.4268C43.8228 19.1783 42.9536 19.9272 42.417 20.8625C41.8018 21.9344 41.2681 23.045 40.6213 24.1019C39.2337 26.3687 37.6586 28.5135 36.0633 30.6371C35.0854 31.9387 34.0883 33.2305 33.1141 34.538C33.0929 34.2189 33.0664 33.9 33.0306 33.5822C32.5484 29.3217 30.7137 25.3673 28.1852 21.9414C25.9033 18.8494 23.2455 15.493 23.0357 11.4869C22.934 9.54553 23.692 7.52844 25.121 6.19482C26.5057 4.90247 28.4273 4.46436 30.2768 4.64282C31.9799 4.80701 33.5859 5.53101 34.7014 6.85303C36.0009 8.39368 36.4356 10.526 36.1902 12.4938C36.118 13.0739 35.9878 13.6455 35.8131 14.2031C35.652 14.7177 35.5314 15.1875 35.6773 15.7239C35.9266 16.6407 36.7969 17.3236 37.7438 17.3625C38.7527 17.4041 39.5164 16.7325 39.8615 15.8301C40.2544 14.8038 40.4875 13.6812 40.5947 12.5896C41.0005 8.45691 39.2792 4.18225 35.7495 1.88147C32.3471 -0.33606 27.6579 -0.670166 24.0629 1.29028C20.9597 2.98254 18.8334 6.24817 18.3445 9.72668C17.7693 13.8188 19.4852 17.8871 21.5778 21.3066C22.6711 23.0933 23.95 24.7577 25.0363 26.5482C26.2051 28.475 27.0694 30.5795 27.4488 32.8069C27.8004 34.8689 27.8025 37.11 27.1873 39.124C26.6154 40.9967 25.4613 42.6943 24.0218 44.0098C20.8967 46.8663 16.4542 47.8494 12.4138 46.6259C8.9104 45.5646 6.22766 42.5179 5.3737 38.9921C4.55612 35.6157 5.24956 31.7761 8.06927 29.5249C8.84618 28.9048 9.9134 28.568 10.4529 27.6936C10.924 26.9301 10.952 25.947 10.514 25.1628C10.086 24.3964 9.2575 23.874 8.37337 23.8672C7.35675 23.8593 6.44695 24.5132 5.65019 25.0728C2.32908 27.406 0.361588 31.0581 0.0498886 35.0824C-0.280102 39.3405 1.0383 43.4163 3.66771 46.769C6.1547 49.9406 9.96593 51.9208 13.9219 52.5176C16.1593 52.8549 18.4723 52.7567 20.6612 52.173C24.394 51.1774 27.7352 48.8517 30.0105 45.7362C30.8574 44.577 31.5665 43.329 32.0856 42.0011C32.1862 41.7902 32.3142 41.6021 32.8444 40.8842C33.353 40.1959 33.841 39.4923 34.3301 38.7897C35.2977 37.3997 36.2425 35.9937 37.1716 34.5779C38.0756 33.2001 38.9648 31.8127 39.8465 30.4209C40.3139 29.6831 40.8293 28.9506 41.2416 28.1791C40.5626 30.6866 39.8234 33.1838 39.0336 35.6587C38.6723 36.7906 38.159 37.9069 37.8927 39.0642C37.6501 40.1184 37.8423 41.2444 38.8716 41.8014C39.8053 42.3069 40.927 42.0479 41.5784 41.2273C42.2121 40.4286 42.5225 39.3372 42.9791 38.4331C44.1123 36.1897 45.4959 34.0767 46.93 32.016C48.1716 30.2318 49.4916 28.5005 50.9281 26.8682C51.2888 26.4585 51.6563 26.0547 52.0326 25.6594C52.3891 25.2848 52.7611 24.7533 53.1969 24.472C53.9106 24.012 53.609 24.9877 53.5059 25.3146C53.3189 25.9088 53.1306 26.5026 52.9372 27.0948C52.276 29.1219 51.5968 31.1437 50.9767 33.1838C50.4592 34.8857 49.4252 37.3405 50.6389 38.9625C51.9441 40.7068 54.4325 39.7489 55.7882 38.6288C56.6517 37.9155 57.431 37.0911 58.196 36.2753C58.8828 35.5433 59.5123 34.7192 60.2489 34.0383C60.5589 36.4325 61.9703 38.6804 64.609 38.736C67.261 38.792 69.5491 37.0424 70.764 34.7946C70.6821 35.7883 70.8522 36.9023 71.6814 37.5566C72.4603 38.171 73.5392 38.1681 74.4431 37.8632C75.386 37.5449 76.1608 36.9008 76.8544 36.2064C77.664 35.3958 78.4024 34.5109 79.0371 33.5568C79.042 34.7495 79.4235 36.002 80.5126 36.6343C82.0352 37.5184 83.8228 36.7983 85.2398 36.0585C88.1511 34.5391 90.6047 32.1539 93.0023 29.9463C92.7377 30.649 92.4743 31.3521 92.2068 32.0535C91.9205 32.8044 91.5454 33.5981 91.7131 34.4205C91.998 35.8163 93.8014 36.5745 94.9778 35.7439C95.9919 35.0277 96.3104 33.5519 96.7159 32.4534C97.406 30.5845 98.0812 28.7106 98.7544 26.8356C99.6072 28.5385 100.522 30.2585 101.691 31.7704C102.596 32.9413 103.81 34.0494 105.353 34.1796C107.145 34.3306 108.72 33.134 109.99 32.0164C112.986 29.3794 115.685 26.4163 118.35 23.452C118.792 24.428 119.248 25.3987 119.646 26.3937C120.164 27.6906 121.199 29.7078 120.296 31.0308C119.552 32.1195 117.8 32.1193 116.679 31.7101C115.889 31.4219 115.297 30.7852 114.52 30.494C113.764 30.2109 112.897 30.4395 112.334 31.0079C111.686 31.6624 111.506 32.6748 111.938 33.4963C112.313 34.2115 113.034 34.7145 113.718 35.1046C117.056 37.0061 121.74 36.5599 124 33.1921C125.162 31.4611 125.126 29.4196 124.589 27.4738Z" fill="#FFFFFF" fill-opacity="1.000000" fill-rule="nonzero"/>
</svg>
